<svg xmlns="http://www.w3.org/2000/svg" id="图层_1" x="0" y="0" version="1.1" viewBox="0 0 16 16" xml:space="preserve" style="enable-background:new 0 0 16 16"><style type="text/css">.st0{fill:#fff}.st1{fill:#a85490}</style><path d="M8,16L8,16c-4.4,0-8-3.6-8-8v0c0-4.4,3.6-8,8-8h0c4.4,0,8,3.6,8,8v0C16,12.4,12.4,16,8,16z" class="st0"/><g><path d="M11.8,5c-0.3,0-0.8,0-1.4-0.1c-0.6,0-1.1-0.1-1.4-0.1H8.5c0,0.6,0.1,1.5,0.2,2.8c0.1,1.2,0.1,2.2,0.1,2.8 c0,0.1,0,0.4,0,0.7c0,0.3,0,0.5,0,0.7c0,0.3,0,0.5-0.1,0.7c-0.1,0.3-0.3,0.4-0.6,0.4c-0.2,0-0.3-0.1-0.5-0.2 c-0.1-0.1-0.2-0.3-0.2-0.5c0-0.1,0-0.2,0-0.3s0-0.2,0-0.3c0-0.2,0-0.5,0-0.9s0-0.7,0-0.9c0-0.6,0-1.5-0.1-2.6 c-0.1-1.2-0.2-2-0.2-2.6l-0.6,0C5.7,4.9,5,4.8,4.4,4.7C4.1,4.6,3.9,4.4,3.9,4c0-0.2,0.1-0.3,0.2-0.5c0.1-0.1,0.3-0.2,0.5-0.2 c0.1,0,0.5,0,1,0.1c0.4,0.1,0.8,0.1,1,0.1c0.3,0,0.6,0,1.2,0c0.5,0,0.9,0,1.2,0c0.3,0,0.8,0,1.5,0.1c0.6,0,1.1,0.1,1.5,0.1 c0.2,0,0.3,0.1,0.5,0.2c0.1,0.1,0.2,0.3,0.2,0.5c0,0.2-0.1,0.3-0.2,0.5C12.2,4.9,12,5,11.8,5z" class="st1"/></g></svg>